<?xml version="1.0" encoding="UTF-8"?>
<svg version="1.1" xmlns="http://www.w3.org/2000/svg" width="474" height="474">
<path d="M0 0 C4 0 4 0 5.6328125 1.49609375 C6.12523437 2.13675781 6.61765625 2.77742187 7.125 3.4375 C9.18871481 6.16570285 9.18871481 6.16570285 12 8 C12 8.66 12 9.32 12 10 C12.53463867 10.21011719 13.06927734 10.42023437 13.62011719 10.63671875 C16.9245415 12.52961015 19.41594503 15.13065526 22.078125 17.8125 C22.64956238 18.38202393 23.22099976 18.95154785 23.80975342 19.53833008 C25.01234789 20.7395668 26.21243334 21.94331997 27.41015625 23.14941406 C29.25040717 25.00040955 31.10112633 26.84045446 32.953125 28.6796875 C34.12043384 29.84831724 35.28712251 31.01756684 36.453125 32.1875 C37.00929504 32.73962158 37.56546509 33.29174316 38.13848877 33.8605957 C42 37.77006365 42 37.77006365 42 40 C42.57373352 40.24808914 43.14746704 40.49617828 43.73858643 40.75178528 C46.34806476 42.19211858 48.08599207 43.85288484 50.18261719 45.97143555 C50.99736511 46.78956223 51.81211304 47.6076889 52.65155029 48.4506073 C53.52450745 49.33702408 54.3974646 50.22344086 55.296875 51.13671875 C56.68404506 52.53183885 58.07121786 53.92695623 59.45854568 55.32191944 C61.4014037 57.27790068 63.33969225 59.23837932 65.2779541 61.19891357 C68.65094757 64.60980742 72.02856166 68.01610753 75.40997314 71.4186554 C77.20702953 73.22785405 79.00140694 75.03971897 80.79266357 76.85466003 C85.05212002 81.1477394 89.37853671 85.25195052 93.96514893 89.1912384 C98.04768263 92.82016745 101.84529283 96.74538407 105.6875 100.625 C107.04041138 101.98359131 107.04041138 101.98359131 108.4206543 103.36962891 C111.76605444 106.72921306 115.10688392 110.09331262 118.4473877 113.45776367 C121.732918 116.76634351 125.02233791 120.07102481 128.3125 123.375 C129.16481201 124.23561035 130.01712402 125.0962207 130.89526367 125.98291016 C135.22582941 130.33103977 139.62784565 134.5080099 144.2824707 138.50732422 C146.43001464 140.37371848 148.44357356 142.3460924 150.4375 144.375 C151.18773437 145.13296875 151.93796875 145.8909375 152.7109375 146.671875 C154.23697917 148.22395833 155.76302083 149.77604167 157.2890625 151.328125 C158.03929687 152.08609375 158.78953125 152.8440625 159.5625 153.625 C160.22378906 154.29789063 160.88507813 154.97078125 161.56640625 155.6640625 C163.57966117 157.5965287 165.62729341 159.42028443 167.74023438 161.24023438 C172.22898857 165.14157265 176.41343141 169.30423914 180.59375 173.53125 C181.38471069 174.32599731 182.17567139 175.12074463 182.99060059 175.9395752 C186.34018573 179.30535548 189.6837327 182.67711048 193.02783203 186.04833984 C195.48520939 188.52390227 197.94566058 190.99638083 200.40625 193.46875 C201.14919312 194.21999146 201.89213623 194.97123291 202.65759277 195.74523926 C206.72788828 199.8343564 210.89491067 203.73272792 215.26647949 207.49801636 C218.66606111 210.44353443 221.81939722 213.63505885 225 216.8125 C225.67933594 217.47958984 226.35867188 218.14667969 227.05859375 218.83398438 C227.69925781 219.47271484 228.33992188 220.11144531 229 220.76953125 C229.86625 221.62961792 229.86625 221.62961792 230.75 222.50708008 C232 224 232 224 232 226 C232.58136719 226.25136719 233.16273438 226.50273437 233.76171875 226.76171875 C236.28524777 228.15780723 237.87650007 229.68086218 239.8125 231.8125 C240.43769531 232.47894531 241.06289063 233.14539063 241.70703125 233.83203125 C243 236 243 236 242.78588867 238.41967773 C241.89393579 241.34824251 240.97670062 242.42863163 238.71875 244.453125 C238.04561768 245.06824951 237.37248535 245.68337402 236.67895508 246.31713867 C235.60037231 247.27390503 235.60037231 247.27390503 234.5 248.25 C233.03407184 249.58344424 231.56922172 250.91807462 230.10546875 252.25390625 C229.04271729 253.21707764 229.04271729 253.21707764 227.95849609 254.19970703 C225.49883815 256.46067906 223.15087105 258.80148811 220.8125 261.1875 C218.71630116 263.31936195 216.73055528 265.21170657 214.375 267.0625 C212.30742825 268.74920327 210.83214879 270.30948524 209.12890625 272.3359375 C204.41505566 277.77391108 199.32603549 282.82383966 194.23022461 287.90014648 C192.56573723 289.5592732 190.90666553 291.22368051 189.24804688 292.88867188 C188.1669871 293.96907072 187.08561708 295.04915925 186.00390625 296.12890625 C185.52031143 296.6145253 185.03671661 297.10014435 184.53846741 297.60047913 C181.8230205 300.29799359 179.0335443 302.86122092 176.13452148 305.36108398 C171.84091172 309.08500373 167.83735761 313.05274462 163.84375 317.09375 C163.0971814 317.84410522 162.35061279 318.59446045 161.5814209 319.36755371 C159.21847975 321.7425992 156.8588263 324.12086817 154.5 326.5 C151.38839354 329.63839217 148.27336245 332.77332745 145.15625 335.90625 C144.10745667 336.96749084 144.10745667 336.96749084 143.03747559 338.0501709 C139.15628572 341.95037371 135.16543464 345.63241668 130.99963379 349.22521973 C127.46435819 352.36296297 124.16521757 355.73286189 120.84375 359.09375 C120.0971814 359.84410522 119.35061279 360.59446045 118.5814209 361.36755371 C116.21847975 363.7425992 113.8588263 366.12086817 111.5 368.5 C108.38839354 371.63839217 105.27336245 374.77332745 102.15625 377.90625 C101.10745667 378.96749084 101.10745667 378.96749084 100.03747559 380.0501709 C96.13026937 383.9765175 92.11326144 387.68891808 87.91906738 391.30578613 C84.86612173 394.00102389 82.01386815 396.88187929 79.15625 399.78125 C78.54285767 400.39842896 77.92946533 401.01560791 77.29748535 401.65148926 C75.36249942 403.59854038 73.43082595 405.54882407 71.5 407.5 C57.13518766 422.01621061 57.13518766 422.01621061 51.07910156 427.15234375 C46.47198922 431.24659295 42.17383271 435.679391 37.82519531 440.04443359 C36.11116533 441.76387838 34.3917829 443.47784307 32.671875 445.19140625 C31.5751996 446.28874156 30.47883397 447.38638655 29.3828125 448.484375 C28.87138702 448.99377625 28.35996155 449.50317749 27.83303833 450.02801514 C25.60998684 452.26583319 23.75751755 454.36372368 22 457 C21.34 457 20.68 457 20 457 C20 457.66 20 458.32 20 459 C16.27940696 463.08065044 12.06113002 466.61925331 7.890625 470.23046875 C5.92091997 471.86863988 5.92091997 471.86863988 5 474 C3.35 474 1.7 474 0 474 C0 473.34 0 472.68 0 472 C-0.60070312 471.73703125 -1.20140625 471.4740625 -1.8203125 471.203125 C-4.13396304 469.92605624 -5.22985567 468.79531457 -6.875 466.75 C-10.8987634 461.97722437 -15.30368007 457.63876057 -19.76123047 453.27636719 C-22.71796479 450.36197868 -25.55098577 447.40463713 -28.24951172 444.24829102 C-31.83072166 440.13440696 -35.61840272 436.28563181 -39.5078125 432.46484375 C-40.92070615 431.06458755 -42.3334625 429.6641928 -43.74609375 428.26367188 C-45.94061839 426.09397885 -48.13673347 423.92594408 -50.33544922 421.76049805 C-52.48071066 419.6455828 -54.61958767 417.52436967 -56.7578125 415.40234375 C-57.41000763 414.76360825 -58.06220276 414.12487274 -58.73416138 413.46678162 C-62.65313323 409.56924639 -66.02585206 405.67167039 -69 401 C-68.49234635 395.80883205 -63.45789028 392.09368079 -59.875 388.625 C-59.19356934 387.95452637 -58.51213867 387.28405273 -57.81005859 386.59326172 C-53.9243972 382.79297908 -49.97442796 379.10828334 -45.8203125 375.6015625 C-42.88658895 373.02038942 -40.18850822 370.20969309 -37.46875 367.40625 C-35.45971123 365.44807297 -33.42193404 363.62145058 -31.2963562 361.79515076 C-27.2961524 358.30521346 -23.52150882 354.64429332 -19.78955078 350.87133789 C-19.11859879 350.19731934 -18.44764679 349.52330078 -17.75636292 348.82885742 C-16.31539518 347.3807929 -14.87556064 345.9316 -13.43677139 344.48137093 C-11.16161628 342.18870062 -8.88282713 339.89969989 -6.60299683 337.61167908 C-0.12719169 331.1115133 6.34280495 324.60558773 12.80859375 318.09545898 C16.77525622 314.10210074 20.74670602 310.11355663 24.72119522 306.12798882 C26.23421806 304.60874311 27.74533892 303.08760083 29.2545433 301.56456184 C31.35385212 299.44615651 33.45913847 297.33387227 35.56591797 295.22290039 C36.19136002 294.58869675 36.81680206 293.9544931 37.4611969 293.30107117 C41.77210104 289 41.77210104 289 44 289 C44 288.34 44 287.68 44 287 C45.609375 285.44921875 45.609375 285.44921875 47.75 283.6875 C50.10060645 281.69441586 52.06918358 279.91352052 54 277.5 C55.74515389 275.31855764 57.35016847 273.78406866 59.46875 272 C64.74649993 267.43198359 69.60214247 262.46812809 74.5 257.5 C79.97953136 251.9418527 85.42206311 246.45345208 91.42382812 241.45507812 C93.24322387 239.88985726 93.24322387 239.88985726 95 237 C91.97343117 233.29245318 89.00610483 229.90117007 85.34375 226.81640625 C79.83836723 222.06123951 74.8079449 216.85586204 69.7109375 211.671875 C66.33385691 208.25997914 62.96496765 204.9130592 59.3046875 201.8046875 C52.89101461 196.29408011 47.06684251 190.13286298 41.125 184.125 C38.69296814 181.66640929 36.25765523 179.21113697 33.8203125 176.7578125 C33.26513947 176.19434113 32.70996643 175.63086975 32.13796997 175.05032349 C29.34276325 172.16586894 29.34276325 172.16586894 26 170 C26 169.34 26 168.68 26 168 C24.02 167.01 24.02 167.01 22 166 C22 165.34 22 164.68 22 164 C21.42058655 163.74623093 20.8411731 163.49246185 20.24420166 163.23100281 C17.74438881 161.85979063 16.09618279 160.33000744 14.09277344 158.30395508 C13.33808777 157.54589066 12.5834021 156.78782623 11.80584717 156.00679016 C10.99851135 155.18599472 10.19117554 154.36519928 9.359375 153.51953125 C8.51836243 152.67331711 7.67734985 151.82710297 6.81085205 150.95524597 C4.11911663 148.24569471 1.43413474 145.52957923 -1.25 142.8125 C-3.92066362 140.11410238 -6.59280522 137.41721276 -9.26800537 134.72331238 C-10.93152597 133.04766586 -12.5923676 131.36935397 -14.25006104 129.6879425 C-18.44303914 125.45927538 -22.7198649 121.42083209 -27.23526001 117.53865051 C-29.56412556 115.50814732 -31.74266129 113.35330277 -33.91015625 111.15234375 C-34.75513672 110.29962891 -35.60011719 109.44691406 -36.47070312 108.56835938 C-37.32599609 107.70017578 -38.18128906 106.83199219 -39.0625 105.9375 C-45.86849725 98.98143207 -45.86849725 98.98143207 -53.12109375 92.50390625 C-54.07113281 91.67761719 -55.02117187 90.85132812 -56 90 C-56 89.34 -56 88.68 -56 88 C-56.55042969 87.77054687 -57.10085937 87.54109375 -57.66796875 87.3046875 C-60.66952698 85.62542377 -62.85213741 83.52483269 -65.3125 81.125 C-66.21613281 80.26132813 -67.11976562 79.39765625 -68.05078125 78.5078125 C-70 76 -70 76 -70.0546875 73.94921875 C-68.66395841 71.37894536 -66.93858034 69.69249704 -64.8125 67.6875 C-61.89020434 64.87688443 -59.13569002 62.07118686 -56.5625 58.9375 C-55.2940625 57.4834375 -55.2940625 57.4834375 -54 56 C-53.34 56 -52.68 56 -52 56 C-51.73865768 55.41301331 -51.47731537 54.82602661 -51.20805359 54.22125244 C-49.92831728 51.86819673 -48.57288362 50.33791516 -46.67114258 48.45996094 C-45.99316116 47.78535828 -45.31517975 47.11075562 -44.61665344 46.41571045 C-43.88335312 45.69586975 -43.1500528 44.97602905 -42.39453125 44.234375 C-41.63710129 43.48214661 -40.87967133 42.72991821 -40.09928894 41.95489502 C-37.67505694 39.54846775 -35.24427017 37.14880762 -32.8125 34.75 C-30.39940908 32.36466796 -27.98783879 29.97784948 -25.57926941 27.58795166 C-24.08169436 26.10247625 -22.58145555 24.61967962 -21.07807922 23.14007568 C-17.03879315 19.1388156 -13.23848465 15.05091263 -9.63114929 10.65362549 C-7.88218143 8.88055796 -6.27439585 7.97987279 -4 7 C-4 6.34 -4 5.68 -4 5 C-3.34 5 -2.68 5 -2 5 C-1.34 3.35 -0.68 1.7 0 0 Z " fill="#020202" transform="translate(160,0)"/>
<path d="M0 0 C2.33920855 1.25154165 3.94758228 2.67799457 5.82128906 4.56030273 C6.53027344 5.26993164 7.23925781 5.97956055 7.96972656 6.71069336 C8.69933594 7.45641602 9.42894531 8.20213867 10.18066406 8.97045898 C11.29828125 10.08324219 11.29828125 10.08324219 12.43847656 11.21850586 C17.93066406 16.76601759 17.93066406 16.76601759 17.93066406 19.03295898 C18.51947357 19.29612411 19.10828308 19.55928925 19.7149353 19.83042908 C22.03232994 21.08813553 23.53502741 22.40202824 25.38232422 24.2734375 C26.03625153 24.93074356 26.69017883 25.58804962 27.36392212 26.26527405 C28.05883759 26.97364914 28.75375305 27.68202423 29.46972656 28.41186523 C30.55282608 29.50276711 30.55282608 29.50276711 31.6578064 30.6157074 C33.961891 32.9375948 36.25917538 35.26606037 38.55566406 37.59545898 C40.86015539 39.9275447 43.16607798 42.25816843 45.47494507 44.58592224 C46.91115562 46.03441436 48.34468492 47.48557075 49.77529907 48.93959045 C50.42292206 49.59374435 51.07054504 50.24789825 51.73779297 50.921875 C52.30752838 51.49986343 52.87726379 52.07785187 53.46426392 52.6733551 C54.9058512 54.13729276 54.9058512 54.13729276 56.93066406 55.03295898 C56.93066406 55.69295898 56.93066406 56.35295898 56.93066406 57.03295898 C57.80262421 57.41645256 57.80262421 57.41645256 58.69219971 57.80769348 C61.15538671 59.15596515 62.77390852 60.64211495 64.74609375 62.63720703 C65.84809113 63.74427254 65.84809113 63.74427254 66.97235107 64.873703 C67.75781311 65.67262466 68.54327515 66.47154633 69.35253906 67.29467773 C70.17135559 68.11869583 70.99017212 68.94271393 71.83380127 69.79170227 C74.45420943 72.42992372 77.06786094 75.07470722 79.68066406 77.72045898 C82.27999505 80.34752967 84.88080595 82.97308948 87.48468018 85.59565735 C89.10368918 87.22678623 90.72001924 88.86058013 92.33319092 90.4974823 C97.02656065 95.23187047 101.86828397 99.69772356 106.93066406 104.03295898 C108.99134195 105.85228292 110.99394415 107.70623742 112.99316406 109.59545898 C114.43369141 110.92770508 114.43369141 110.92770508 115.90332031 112.28686523 C117.93066406 115.03295898 117.93066406 115.03295898 118.21582031 117.90795898 C116.30436697 122.55586984 113.03799866 125.20050809 109.30566406 128.47045898 C107.89577451 129.73884028 106.48691325 131.00836556 105.07910156 132.27905273 C104.3854248 132.89941406 103.69174805 133.51977539 102.97705078 134.15893555 C100.38024071 136.53702122 97.90926435 139.02497473 95.43603516 141.53027344 C93.7144584 143.24877894 91.91794053 144.84364675 90.05566406 146.40795898 C86.07328542 149.82253755 82.44137665 153.52439306 78.81347656 157.31030273 C76.93066406 159.03295898 76.93066406 159.03295898 74.93066406 159.03295898 C74.93066406 159.69295898 74.93066406 160.35295898 74.93066406 161.03295898 C73.4597168 162.48266602 73.4597168 162.48266602 71.42675781 164.16577148 C67.06098686 167.88046436 63.01987437 171.83191465 58.99316406 175.90795898 C58.2687915 176.63611816 57.54441895 177.36427734 56.7980957 178.11450195 C54.50648103 180.41821544 52.21815754 182.72515373 49.93066406 185.03295898 C46.91281325 188.07760678 43.8915299 191.11878866 40.86816406 194.15795898 C40.19084229 194.8435791 39.51352051 195.52919922 38.81567383 196.2355957 C34.91513522 200.15582673 30.90974081 203.88403663 26.71022034 207.48292542 C23.97845495 209.86235455 21.41696934 212.39801386 18.86816406 214.97045898 C18.35431152 215.48552002 17.84045898 216.00058105 17.31103516 216.53125 C13.86969544 220.00786047 10.6336413 223.61333099 7.46582031 227.34155273 C5.16755721 229.87373574 2.62336792 231.93133646 -0.06933594 234.03295898 C-3.85212788 232.73712368 -6.18079511 231.28616955 -8.94433594 228.40795898 C-9.64171875 227.68479492 -10.33910156 226.96163086 -11.05761719 226.21655273 C-13.37370513 223.70258543 -15.58541091 221.1128603 -17.79980469 218.50952148 C-19.74703416 216.38466178 -21.74124625 214.37582178 -23.80761719 212.36889648 C-24.48493896 211.70833252 -25.16226074 211.04776855 -25.86010742 210.3671875 C-27.23257164 209.03587952 -28.61343885 207.71317141 -30.00317383 206.39990234 C-30.6411792 205.77994385 -31.27918457 205.15998535 -31.93652344 204.52124023 C-32.51515137 203.96992432 -33.0937793 203.4186084 -33.68994141 202.85058594 C-35.59582366 200.33920657 -36.21304731 199.23644201 -36.06933594 196.03295898 C-34.1259934 193.21460128 -31.69177224 190.93667094 -29.22949219 188.57202148 C-28.51458115 187.86322845 -27.7996701 187.15443542 -27.06309509 186.42416382 C-24.76633741 184.15438826 -22.44937394 181.90649259 -20.13183594 179.65795898 C-18.60382925 178.15147808 -17.07712046 176.64367951 -15.55175781 175.13452148 C-4.41186325 164.15980033 -4.41186325 164.15980033 1.0324707 159.4465332 C4.62444137 156.33622093 8.00475346 153.07411877 11.33691406 149.68920898 C11.90591431 149.11642212 12.47491455 148.54363525 13.06115723 147.95349121 C14.85349388 146.14910648 16.64250722 144.34148539 18.43066406 142.53295898 C32.46437915 128.33938058 32.46437915 128.33938058 38.41113281 123.37646484 C40.54942688 121.48587483 42.25626645 119.33525569 43.93066406 117.03295898 C37.90609658 109.92358192 31.59455173 103.14271134 24.48925781 97.09936523 C17.50531254 91.02902456 11.1321782 84.28802983 4.63037109 77.7121582 C-4.06580334 68.91047479 -4.06580334 68.91047479 -13.24951172 60.62573242 C-16.75213845 57.56011171 -19.98737737 54.21809025 -23.25683594 50.90795898 C-23.94197266 50.21831055 -24.62710938 49.52866211 -25.33300781 48.81811523 C-26.65336034 47.48886716 -27.97113085 46.15704768 -29.28588867 44.82226562 C-30.39758892 43.70691298 -31.52267578 42.60455456 -32.66723633 41.52294922 C-33.84632856 40.40531346 -34.96526202 39.22475971 -36.06933594 38.03295898 C-36.13183594 35.34545898 -36.13183594 35.34545898 -35.06933594 33.03295898 C-33.00683594 31.72045898 -33.00683594 31.72045898 -31.06933594 31.03295898 C-31.06933594 30.37295898 -31.06933594 29.71295898 -31.06933594 29.03295898 C-30.40933594 29.03295898 -29.74933594 29.03295898 -29.06933594 29.03295898 C-28.82997314 28.46762451 -28.59061035 27.90229004 -28.34399414 27.31982422 C-26.79871169 24.54743182 -24.93420457 22.67277111 -22.67480469 20.44311523 C-21.80146484 19.5762207 -20.928125 18.70932617 -20.02832031 17.81616211 C-19.11373047 16.91833008 -18.19914062 16.02049805 -17.25683594 15.09545898 C-16.35384766 14.20149414 -15.45085937 13.3075293 -14.52050781 12.38647461 C-12.82966906 10.71302876 -11.13678015 9.04164993 -9.44116211 7.37304688 C-7.74268408 5.69729681 -6.10821669 3.95569184 -4.51977539 2.17529297 C-2.06933594 0.03295898 -2.06933594 0.03295898 0 0 Z " fill="#040404" transform="translate(107.0693359375,119.967041015625)"/>
<path d="M0 0 C0.33 0.66 0.66 1.32 1 2 C-3.67657993 7.68773234 -3.67657993 7.68773234 -5.8125 9.75 C-7.22958315 10.95430993 -7.22958315 10.95430993 -7 13 C-7.598125 13.2475 -8.19625 13.495 -8.8125 13.75 C-11.28777159 15.16444091 -12.33430804 16.72860188 -14 19 C-14.66 19 -15.32 19 -16 19 C-16 19.66 -16 20.32 -16 21 C-16.66 21 -17.32 21 -18 21 C-18.33 21.99 -18.66 22.98 -19 24 C-19 23.34 -19 22.68 -19 22 C-19.66 21.67 -20.32 21.34 -21 21 C-14.07 14.07 -7.14 7.14 0 0 Z " fill="#383838" transform="translate(94,293)"/>
<path d="M0 0 C0.33 0.66 0.66 1.32 1 2 C0.67 2.66 0.34 3.32 0 4 C-0.66 4 -1.32 4 -2 4 C-2 4.99 -2 5.98 -2 7 C-2.78375 7.2475 -3.5675 7.495 -4.375 7.75 C-7.08498085 8.70727602 -7.08498085 8.70727602 -7.875 10.78125 C-9.33678098 13.66420693 -11.31191236 15.50300058 -13.625 17.75 C-14.44226563 18.54921875 -15.25953125 19.3484375 -16.1015625 20.171875 C-16.72804687 20.77515625 -17.35453125 21.3784375 -18 22 C-18.66 21.67 -19.32 21.34 -20 21 C-16.1366276 16.51314387 -12.24875802 12.13073696 -8 8 C-7.1646875 7.1028125 -7.1646875 7.1028125 -6.3125 6.1875 C-5 5 -5 5 -3 5 C-3 4.34 -3 3.68 -3 3 C-2.34 3 -1.68 3 -1 3 C-0.67 2.01 -0.34 1.02 0 0 Z " fill="#3B3B3B" transform="translate(159,2)"/>
<path d="M0 0 C0 0.99 0 1.98 0 3 C-2 5 -2 5 -4 7 C-4.165 7.680625 -4.33 8.36125 -4.5 9.0625 C-5 11 -5 11 -6.875 12.8125 C-7.57625 13.204375 -8.2775 13.59625 -9 14 C-9.99 13.67 -10.98 13.34 -12 13 C-8.19524578 8.43969176 -4.25030379 4.14910608 0 0 Z " fill="#262626" transform="translate(171,320)"/>
<path d="M0 0 C0 0.99 0 1.98 0 3 C0.3062434 4.33981486 0.63451555 5.67511887 1 7 C0.05125 7.268125 -0.8975 7.53625 -1.875 7.8125 C-5.25267273 8.74986588 -5.25267273 8.74986588 -7 12 C-7 11.34 -7 10.68 -7 10 C-7.66 9.67 -8.32 9.34 -9 9 C-6.03 6.03 -3.06 3.06 0 0 Z " fill="#474747" transform="translate(196,295)"/>
<path d="M0 0 C0.66 0.66 1.32 1.32 2 2 C-0.85211349 5.01056424 -3.2436708 7.25599001 -7 9 C-7.33 9.66 -7.66 10.32 -8 11 C-8 8 -8 8 -6.25 5.95703125 C-5.5075 5.24933594 -4.765 4.54164063 -4 3.8125 C-2.88625 2.73935547 -2.88625 2.73935547 -1.75 1.64453125 C-1.1725 1.10183594 -0.595 0.55914062 0 0 Z " fill="#090909" transform="translate(142,349)"/>
<path d="M0 0 C0.33 0.66 0.66 1.32 1 2 C-2.07881696 5.87051275 -5.00073014 9.02911382 -9 12 C-9.66 11.67 -10.32 11.34 -11 11 C-7.37 7.37 -3.74 3.74 0 0 Z " fill="#6D6D6D" transform="translate(94,293)"/>
<path d="M0 0 C0.66 0.66 1.32 1.32 2 2 C1.34 2 0.68 2 0 2 C-0.33 2.66 -0.66 3.32 -1 4 C-2.61562075 6.04468724 -4.31438523 8.01183899 -6 10 C-7.32 9.67 -8.64 9.34 -10 9 C-8.37660195 7.29115995 -6.70680947 5.62553283 -5 4 C-4.34 4 -3.68 4 -3 4 C-3 3.34 -3 2.68 -3 2 C-2.01 1.34 -1.02 0.68 0 0 Z " fill="#4C4C4C" transform="translate(207,285)"/>
<path d="M0 0 C0 3.59857954 -0.95830515 5.09451118 -3 8 C-3.66 8 -4.32 8 -5 8 C-5.33 8.99 -5.66 9.98 -6 11 C-6.99 10.34 -7.98 9.68 -9 9 C-6.03 6.03 -3.06 3.06 0 0 Z " fill="#4B4B4B" transform="translate(245,247)"/>
<path d="M0 0 C0.33 1.32 0.66 2.64 1 4 C-1.3125 6.0625 -1.3125 6.0625 -4 8 C-4.99 7.67 -5.98 7.34 -7 7 C-4.69 4.69 -2.38 2.38 0 0 Z " fill="#535353" transform="translate(106,383)"/>
<path d="M0 0 C1.32 1.32 2.64 2.64 4 4 C1.525 5.485 1.525 5.485 -1 7 C-1.625 4.625 -1.625 4.625 -2 2 C-1.34 1.34 -0.68 0.68 0 0 Z " fill="#141414" transform="translate(261,97)"/>
<path d="M0 0 C0.33 0.66 0.66 1.32 1 2 C0.67 2.66 0.34 3.32 0 4 C-0.66 4 -1.32 4 -2 4 C-2 4.99 -2 5.98 -2 7 C-4.375 8.75 -4.375 8.75 -7 10 C-7.66 9.67 -8.32 9.34 -9 9 C-7.71034824 7.62437146 -6.37310707 6.29233607 -5 5 C-4.34 5 -3.68 5 -3 5 C-3 4.34 -3 3.68 -3 3 C-2.34 3 -1.68 3 -1 3 C-0.67 2.01 -0.34 1.02 0 0 Z " fill="#6C6C6C" transform="translate(159,2)"/>
<path d="M0 0 C0.33 0.99 0.66 1.98 1 3 C-1.77280706 6.08089673 -4.06326356 7.68775452 -8 9 C-7.04270084 7.87411986 -6.08412105 6.7493285 -5.125 5.625 C-4.59132812 4.99851563 -4.05765625 4.37203125 -3.5078125 3.7265625 C-2.38567993 2.44163349 -1.20628025 1.20628025 0 0 Z " fill="#606060" transform="translate(137,251)"/>
<path d="M0 0 C0.99 0 1.98 0 3 0 C3 0.66 3 1.32 3 2 C3.66 2.33 4.32 2.66 5 3 C3.68 3.99 2.36 4.98 1 6 C0.67 5.01 0.34 4.02 0 3 C-0.66 2.67 -1.32 2.34 -2 2 C-1.34 1.34 -0.68 0.68 0 0 Z " fill="#232323" transform="translate(186,305)"/>
<path d="M0 0 C1.32 0 2.64 0 4 0 C4.33 0.99 4.66 1.98 5 3 C4.01 3.33 3.02 3.66 2 4 C1.67 4.66 1.34 5.32 1 6 C0.67 4.02 0.34 2.04 0 0 Z " fill="#323232" transform="translate(160,0)"/>
<path d="M0 0 C0 3.16880694 -0.2058242 4.43689172 -2 7 C-4.625 7.75 -4.625 7.75 -7 8 C-6.02133662 6.85373678 -5.04205413 5.70800212 -4.0625 4.5625 C-3.51722656 3.92441406 -2.97195312 3.28632813 -2.41015625 2.62890625 C-1.63204305 1.73008851 -0.84063472 0.84063472 0 0 Z " fill="#101010" transform="translate(150,341)"/>
<path d="M0 0 C1.65 1.65 3.3 3.3 5 5 C2.03 4.505 2.03 4.505 -1 4 C-1 1 -1 1 0 0 Z " fill="#161616" transform="translate(155,168)"/>
</svg>
